 Enemy of the State 1998 BRRip H264 AAC-Rx(Phoenix-RG).mp4
      Format : MPEG-4 /AVC
      File size : 2.18 GiB
      Duration : 2h 12mn
      Encoding : 2 Pass
      Format profile : High@L4.1
      Bit rate : 2 030 Kbps
      Width : 1 280 pixels
      Height : 560 pixels
      Display aspect ratio : 2.25
      Frame rate : 23.976 fps
      Resolution : 24 bits
      Colorimetry : 4:2:0
      Scan type : Progressive
      Bits/(Pixel*Frame) : 0.118
      Stream size : 1.87 GiB (86%)
      
      
   Audio #2
      Format : AAC / LC
      Format/Info : Advanced Audio Codec
      Duration : 2h 12mn
      Bit rate : 323 Kbps
      Channel(s) : 6 channels
      Channel positions : Front: L C R, Rear: L R, LFE
      Sampling rate : 48.0 KHz
      Resolution : 16 bits
      Stream size : 306 MiB (14%)


SCREEN:
 
http://img714.imageshack.us/img714/4276/vlcsnap98026.jpg
 
http://img714.imageshack.us/img714/2918/vlcsnap98146.jpg
 
http://img691.imageshack.us/img691/8868/vlcsnap95813.jpg